<svg xmlns="http://www.w3.org/2000/svg" viewBox="0 0 512 512" role="img" aria-labelledby="title desc">
  <title id="title">Black Pepper Salt logo</title>
  <desc id="desc">White BPS symbol and black pepper salt text on a black background.</desc>
  <rect width="512" height="512" fill="#000"/>
  <g fill="#fff">
    <path d="M166 103h49v78c0 20 15 35 36 35 20 0 35-15 35-36 0-20-15-35-35-35-9 0-17 2-24 8v-50h25c52 0 86 32 86 78s-36 79-87 79c-50 0-85-34-85-82v-75Z"/>
    <path d="M299 103h89v90h-48v-47h-41v-43Z"/>
    <path d="M166 280c7 31 32 50 70 50 43 0 69-21 69-55 0-28-18-44-58-52l-27-5c-9-2-13-5-13-11 0-8 8-13 21-13 15 0 25 7 29 18h44c-6-30-31-49-69-49-41 0-67 21-67 54 0 29 18 46 57 53l27 5c10 2 14 5 14 12 0 8-9 13-25 13-16 0-26-7-31-20h-41Z"/>
    <circle cx="345" cy="286" r="62"/>
  </g>
  <path d="M312 292h54v54h-23v-31l-50 50-17-17 50-50h-31v-23h54v17h-37Z" fill="#000"/>
  <g fill="#fff" font-family="Arial, Helvetica, sans-serif" font-weight="700" letter-spacing="9">
    <text x="168" y="397" font-size="31">black</text>
    <text x="168" y="434" font-size="31">pepper</text>
  </g>
  <text x="169" y="476" fill="#fff" font-family="Arial, Helvetica, sans-serif" font-size="30" font-weight="300" letter-spacing="10">salt</text>
</svg>
