<svg xmlns="http://www.w3.org/2000/svg" viewBox="0 0 128 128" role="img" aria-label="BPS">
  <rect width="128" height="128" rx="20" fill="#000"/>
  <g fill="#fff">
    <path d="M26 22h24v27c4-4 9-6 16-6 17 0 29 12 29 29 0 18-13 31-32 31-22 0-37-15-37-37V22Zm39 59c8 0 14-6 14-14 0-9-6-15-14-15-9 0-15 6-15 15 0 8 6 14 15 14Z"/>
    <path d="M78 22h28v28H92V36H78V22Z"/>
    <path d="M25 94h33c2 7 8 11 17 11 8 0 13-3 13-8 0-4-3-6-11-8l-18-3c-20-4-31-14-31-31 0-20 17-33 43-33 24 0 41 12 46 31H85c-2-6-7-9-14-9-8 0-12 3-12 8 0 4 3 6 11 7l18 4c20 4 31 14 31 31 0 21-18 34-45 34-27 0-45-13-49-34Z"/>
  </g>
</svg>
